<?xml version="1.0" standalone="no"?>
<!DOCTYPE svg PUBLIC "-//W3C//DTD SVG 20010904//EN"
 "http://www.w3.org/TR/2001/REC-SVG-20010904/DTD/svg10.dtd">
<svg version="1.0" xmlns="http://www.w3.org/2000/svg"
 width="566.000000pt" height="502.000000pt" viewBox="0 0 566.000000 502.000000"
 preserveAspectRatio="xMidYMid meet">

<g transform="translate(0.000000,502.000000) scale(0.100000,-0.100000)"
fill="#000000" stroke="none">
<path d="M2665 4893 c-62 -4 -220 -21 -258 -28 -208 -39 -376 -87 -549 -156
-539 -214 -968 -608 -1235 -1133 -53 -105 -163 -363 -163 -382 0 -11 19 -14
88 -12 79 3 93 0 142 -25 29 -15 56 -24 60 -20 3 4 21 49 39 98 74 203 210
434 366 619 364 435 917 709 1493 739 46 3 85 7 88 10 8 8 17 243 10 271 -3
14 -12 25 -19 24 -6 -1 -34 -3 -62 -5z"/>
<path d="M2914 4877 c-2 -7 -3 -74 -2 -148 l3 -134 115 -7 c205 -13 401 -60
625 -149 268 -107 525 -279 720 -480 209 -216 348 -427 450 -684 26 -66 51
-124 56 -129 5 -6 34 -1 74 13 54 19 80 23 145 19 45 -3 80 -1 80 4 0 25 -90
234 -159 370 -162 321 -341 549 -600 764 -397 331 -857 524 -1344 564 -147 13
-157 12 -163 -3z"/>
<path d="M2791 4345 c-19 -29 -65 -87 -102 -129 -71 -79 -95 -114 -85 -123 3
-4 39 0 78 8 40 8 77 14 82 14 6 0 12 -27 14 -60 4 -64 35 -145 57 -145 16 0
44 69 56 139 4 29 10 55 11 57 2 1 32 -4 68 -11 36 -8 78 -14 93 -15 l28 0
-18 30 c-9 17 -42 56 -71 88 -30 31 -75 90 -100 129 -26 40 -54 73 -62 72 -8
0 -30 -24 -49 -54z"/>
<path d="M1430 3750 c-30 -4 -74 -17 -97 -29 -88 -44 -164 -181 -167 -296 -1
-58 0 -60 24 -58 14 1 727 2 1585 2 858 1 1589 4 1624 8 l63 6 -4 61 c-6 80
-46 163 -109 226 -39 39 -63 54 -115 70 -65 20 -84 20 -1408 19 -737 -1 -1366
-5 -1396 -9z"/>
<path d="M1169 3010 c-7 -35 3 -1368 11 -1408 18 -97 64 -167 195 -296 l120
-119 2 54 c2 30 5 73 9 96 l5 43 72 -5 c40 -3 120 -8 178 -11 l106 -6 6 -211
c2 -117 8 -219 12 -229 7 -18 141 -72 156 -62 5 3 9 174 9 407 l0 402 188 -3
c103 -2 192 -5 199 -7 9 -3 12 -105 13 -424 0 -427 4 -504 24 -520 6 -5 41
-12 77 -16 64 -7 66 -6 72 16 4 13 7 313 7 665 0 603 1 642 18 646 9 2 96 2
193 0 l177 -4 7 -262 c3 -143 5 -440 2 -658 -2 -237 0 -401 5 -406 12 -12 148
22 159 40 5 7 9 396 9 864 l0 852 191 -3 c105 -2 194 -6 197 -10 4 -4 8 -362
10 -796 2 -652 5 -789 16 -789 8 0 49 20 92 44 l79 43 0 404 c0 222 1 488 3
590 l2 186 179 6 c99 4 187 4 195 1 14 -5 15 -50 9 -403 -6 -380 -3 -471 17
-471 22 0 170 160 203 220 67 121 67 117 61 870 l-5 675 -1639 0 c-902 0
-1640 -2 -1641 -5z m2914 -244 c99 -48 158 -143 156 -255 -1 -46 -3 -51 -9
-26 -6 23 -8 25 -9 8 0 -12 -4 -29 -8 -39 -4 -12 -3 -15 5 -10 16 10 14 -5 -4
-29 -8 -11 -23 -21 -32 -21 -9 -1 -49 -16 -89 -33 -52 -22 -88 -31 -130 -32
-80 -1 -38 -16 56 -21 39 -2 71 -6 71 -9 0 -3 -18 -14 -40 -24 -58 -26 -166
-17 -221 19 -47 32 -94 101 -115 171 -12 41 -12 60 -3 105 41 197 196 279 372
196z m-2439 -43 c7 -46 8 -97 1 -115 -4 -10 -32 -13 -113 -13 l-107 0 -3 49
c-4 53 15 91 51 106 12 5 54 9 93 9 l71 1 7 -37z m350 -4 c25 -29 33 -70 20
-103 -5 -13 -25 -16 -120 -16 l-114 0 0 75 0 75 94 0 c93 0 95 0 120 -31z
m-346 -278 c2 -46 -1 -88 -6 -93 -4 -4 -43 -5 -85 -2 -65 6 -81 11 -103 33
-34 34 -40 51 -36 106 l4 46 112 -3 111 -3 3 -84z m362 21 c0 -55 -4 -75 -21
-96 -19 -24 -26 -26 -102 -26 -45 0 -87 4 -93 8 -6 4 -13 44 -16 89 l-5 82 31
3 c17 2 70 5 119 6 l87 4 0 -70z m2180 -88 c0 -8 -19 -13 -24 -6 -3 5 1 9 9 9
8 0 15 -2 15 -3z m-2309 -244 c22 -12 27 -78 7 -98 -9 -9 -71 -12 -219 -12
l-207 0 -16 35 c-13 26 -14 40 -6 55 10 18 23 20 198 23 103 1 195 3 205 5 10
1 27 -3 38 -8z m647 -5 c16 -6 16 -79 -1 -93 -8 -7 -81 -9 -217 -6 -113 2
-210 4 -217 4 -14 0 -34 65 -27 85 3 8 20 15 37 17 45 4 409 -2 425 -7z m-658
-335 c25 -25 26 -62 3 -83 -16 -13 -46 -15 -225 -10 -205 6 -206 6 -217 30
-15 33 -14 49 5 67 13 14 47 16 215 16 186 0 200 -1 219 -20z"/>
<path d="M5003 3005 c-205 -45 -354 -213 -369 -417 -12 -157 27 -267 132 -373
72 -74 144 -110 257 -132 151 -29 288 10 393 109 160 152 192 427 70 611 -70
106 -165 175 -276 201 -78 19 -124 19 -207 1z m237 -157 c84 -37 159 -132 175
-218 3 -21 -1 -57 -10 -90 -9 -30 -17 -63 -18 -72 -1 -9 -5 -14 -9 -12 -4 3
-8 0 -8 -5 0 -6 -10 -23 -22 -38 -33 -38 -138 -143 -145 -143 -3 0 -13 -8 -22
-17 -9 -10 -23 -20 -31 -21 -8 -2 -24 -6 -35 -9 -76 -17 -96 -15 -159 16 -124
61 -191 168 -190 302 3 158 80 268 227 321 70 25 172 19 247 -14z"/>
<path d="M5083 2803 c-7 -2 -13 -16 -13 -29 0 -19 -5 -24 -26 -24 -39 0 -104
-68 -104 -110 0 -68 65 -124 157 -137 54 -7 84 -40 56 -60 -27 -21 -79 -15
-119 12 -20 14 -43 25 -50 25 -16 0 -44 -39 -44 -61 0 -20 84 -79 112 -79 13
0 18 -8 18 -31 0 -29 1 -30 43 -27 41 3 42 4 39 36 -2 29 0 32 26 32 57 0 105
85 88 154 -9 36 -65 75 -138 94 -43 12 -64 23 -66 35 -3 14 4 17 47 17 27 0
53 -4 56 -10 3 -5 23 -10 44 -10 37 0 61 14 61 36 0 21 -52 64 -91 76 -33 9
-39 15 -39 40 0 23 -4 28 -22 27 -13 0 -29 -3 -35 -6z"/>
<path d="M454 2995 c-142 -31 -270 -128 -329 -248 -58 -121 -57 -302 3 -424
77 -160 224 -247 412 -246 151 0 262 54 350 171 72 96 105 192 104 307 0 84
-2 95 -38 167 -51 103 -127 185 -208 225 -110 54 -201 69 -294 48z m211 -163
c115 -55 174 -148 175 -274 0 -177 -85 -289 -254 -334 -102 -27 -165 -10 -260
71 -94 80 -133 203 -102 325 20 79 56 133 120 181 62 47 93 57 186 58 63 1 85
-4 135 -27z"/>
<path d="M507 2804 c-4 -4 -7 -15 -7 -25 0 -11 -17 -26 -46 -39 -126 -62 -105
-174 44 -236 37 -15 74 -34 82 -41 13 -13 13 -16 -4 -29 -32 -23 -81 -18 -100
11 -10 16 -26 25 -41 25 -30 0 -65 -32 -65 -59 0 -24 39 -56 86 -71 26 -9 34
-17 34 -35 0 -27 30 -48 55 -39 9 4 18 19 21 34 4 19 15 30 40 39 35 13 76 59
88 98 9 27 -14 81 -47 111 -13 13 -51 31 -83 41 -50 15 -87 42 -74 54 3 2 24
7 47 10 33 4 47 1 64 -14 26 -23 22 -22 64 -5 19 8 35 21 35 29 0 25 -68 77
-100 77 -27 0 -30 3 -30 30 0 19 -5 30 -14 30 -8 0 -21 2 -28 5 -8 3 -17 2
-21 -1z"/>
<path d="M3328 2334 c-12 -11 -10 -1542 1 -1563 9 -17 14 -17 78 4 l68 22 2
754 c2 415 -1 760 -5 767 -9 14 -133 28 -144 16z"/>
<path d="M3908 2014 c-10 -9 -11 -988 -2 -997 9 -9 36 7 102 62 l58 49 -1 431
c-1 321 -4 434 -13 443 -14 14 -133 24 -144 12z"/>
<path d="M685 1939 c-53 -20 -138 -27 -193 -15 -24 6 -33 4 -38 -8 -12 -31
180 -439 289 -616 329 -530 911 -949 1501 -1080 178 -40 293 -58 409 -63 l98
-5 -3 141 -3 142 -80 7 c-78 7 -206 23 -275 34 -65 11 -270 73 -358 110 -48
19 -132 59 -187 88 -495 257 -850 648 -1042 1146 -24 63 -50 120 -56 127 -9 9
-24 7 -62 -8z"/>
<path d="M4846 1854 c-44 -126 -102 -244 -192 -391 -97 -158 -181 -261 -335
-415 -114 -113 -163 -154 -290 -237 -83 -56 -212 -131 -285 -166 -125 -62
-325 -135 -424 -156 -112 -24 -223 -38 -310 -42 l-95 -3 -3 -139 c-1 -76 1
-142 5 -145 13 -12 266 16 404 44 245 49 435 116 649 228 486 254 815 600
1089 1146 33 65 131 321 131 340 0 4 -33 0 -106 -14 -22 -4 -54 3 -108 25 -43
17 -81 31 -86 31 -4 0 -24 -48 -44 -106z"/>
<path d="M2757 1913 c-4 -3 -7 -279 -7 -613 0 -493 3 -610 14 -625 11 -15 21
-17 66 -12 29 4 55 9 59 13 7 6 7 36 4 737 l-3 507 -63 0 c-35 0 -67 -3 -70
-7z"/>
<path d="M2190 1560 c-13 -8 -15 -63 -15 -392 l0 -383 73 -19 c40 -10 75 -17
78 -14 3 3 6 182 7 398 2 377 1 392 -17 406 -22 16 -103 19 -126 4z"/>
<path d="M1600 1190 c0 -49 -1 -93 -2 -97 -2 -5 27 -24 65 -43 58 -30 69 -33
77 -20 5 8 10 63 10 123 0 59 1 110 3 115 1 4 -33 8 -75 10 l-78 3 0 -91z"/>
</g>
</svg>
